<?xml version="1.0" encoding="UTF-8"?>
<!-- Created with Inkscape (http://www.inkscape.org/) -->
<svg width="96" height="24" version="1.1" viewBox="0 0 25.4 6.35" xml:space="preserve" xmlns="http://www.w3.org/2000/svg"><g><g transform="matrix(.6284 0 0 .6284 .89084 2.4868)"><g transform="matrix(.80744 0 0 .80744 .079135 -1.677)" stroke="#000"><g><path d="m5.3106 2.2791c-0.00282-0.017039-0.00516-0.034022-0.00635-0.051324l-5.768e-4 0.051324z" stroke-width=".27811"/><path d="m6.3453 2.1482h-0.075192c0.00673 0.045179 0.00303 0.08975-0.010958 0.13091h0.57438-0.06875z" stroke-width=".27811"/><path d="m9.4795 2.1482h-0.065276c-0.00582 0.046984-0.019412 0.090861-0.039791 0.13091h0.2781z" stroke-width=".27811"/><path d="m10.751 2.1482c0.03382 0.041042 0.06646 0.08473 0.09804 0.13091h2.4668c0.0362 0 0.06516-0.029076 0.06516-0.065165 0-0.036088-0.02895-0.065742-0.06516-0.065742z" stroke-width=".27811"/><g stroke-width=".27811"><path d="m8.2055 2.1482h-0.48787c0.040964 0.040825 0.081263 0.084504 0.11995 0.13091h0.4851c-0.022761-0.042152-0.11559-0.086628-0.11717-0.13091z"/><path d="m3.3792 1.8725-0.35351 0.44174h-0.2745l-0.75546 0.66722-0.31026 0.0051913-0.98152 0.27623-0.11418 0.030564c-0.011434-0.037517-0.046327-0.065165-0.087656-0.065165-0.048111 0-0.087352 0.037135-0.091116 0.084195-1.8837e-4 0.0024 0 0.00505 0 0.0075s-1.8814e-4 0.00508 0 0.0075c0.003749 0.047062 0.043002 0.084195 0.091116 0.084195 0.041334 0 0.076219-0.027071 0.087656-0.064588l0.11418 0.029988 0.98152 0.27681 0.31026 0.00461 0.75546 0.6678h0.2745l0.35351 0.44117 0.16782 0.00577 0.031141-0.13725-0.13667 5.767e-4 -0.35293-0.44059h-0.28777l-0.75488-0.66666-0.34082-0.0057668-0.72028-0.20357 0.72028-0.20357 0.34082-0.0051902 0.75488-0.66665h0.28777l0.35293-0.44116 1.1418 0.00173 0.15455 0.12514h0.2128l0.12168 0.14878h0.14771l-0.015554-0.13091h-0.070452l-0.12168-0.14878h-0.22837l-0.15455-0.12514z"/><path d="m7.0253 4.4919h-0.62814l-0.047159-0.13085h0.71699z"/><path d="m9.7485 4.4919h-1.4444l0.0066-0.13085h1.5781z"/></g><path d="m11.542 4.3611h2.2108c0.0362 0 0.06562 0.029139 0.06562 0.065228 0 0.036088-0.02941 0.065618-0.06562 0.065618h-2.1977" stroke-width=".27811"/></g><g fill="none" stroke-linecap="round" stroke-width=".31287"><path d="m9.6057 2.152s1.0334 0.60349 0.76359 1.5414c-0.1804 0.62712-0.33979 0.5617-0.82562 1.0398-0.30944 0.30455-0.30944 0.71208-0.30944 0.71208"/><path d="m9.3905 1.9395s0.23157-0.22097 0.56815-0.2123c0.60906 0.015684 0.99106 0.55205 1.2647 1.3343 0.19207 0.54895 0.46069 1.7119 0.05471 2.5964-0.47301 1.0305-1.9823 1.917-3.7068 1.917-1.6461 0-2.7395-0.15844-3.5699-1.118-0.83043-0.9596-0.65055-2.8331 0.96678-2.8408 1.1776-0.0056 1.6913 0.72595 1.4345 1.9809"/><path d="m6.3424 2.1929s-0.013048-0.48281 0.6133-0.44366c0.62635 0.039147 1.4876 0.92647 1.3832 2.2053-0.10439 1.2788 0.00685 1.5387 0.00685 1.5387"/><path d="m6.6947 2.1798s0.71782 0.92377 0.49731 1.8455c-0.2289 0.95678-0.25602 0.85596-0.43299 1.5793"/><path d="m8.2055 2.1978c-0.018454-0.064588 0.079221-0.52416 0.57002-0.53451 0.406-0.00856 0.66254 0.17725 0.64048 0.46544-0.0182 0.23782-0.23245 0.40124-0.51848 0.40124-0.28604 0-0.50748-0.20299-0.50287-0.39676"/><path d="m5.1237 2.1701s0.046134-0.42444 0.52594-0.41521c0.4798 0.00923 0.68279 0.31372 0.60898 0.52594-0.073816 0.21222-0.26638 0.34501-0.51671 0.33217-0.35985-0.018454-0.44751-0.24451-0.43828-0.45673"/><path d="m5.1237 2.1701s0.046134-0.42444 0.52594-0.41521c0.4798 0.00923 0.68279 0.31372 0.60898 0.52594-0.073816 0.21222-0.26638 0.34501-0.51671 0.33217-0.35985-0.018454-0.44751-0.24451-0.43828-0.45673"/><path d="m8.2055 2.1978c-0.018454-0.064588 0.079221-0.52416 0.57002-0.53451 0.406-0.00856 0.66254 0.17725 0.64048 0.46544-0.0182 0.23782-0.23245 0.40124-0.51848 0.40124-0.28604 0-0.50748-0.20299-0.50287-0.39676"/><path d="m8.2055 2.1978c-0.018454-0.064588 0.079221-0.52416 0.57002-0.53451 0.406-0.00856 0.66254 0.17725 0.64048 0.46544-0.0182 0.23782-0.23245 0.40124-0.51848 0.40124-0.28604 0-0.50748-0.20299-0.50287-0.39676"/><path d="m5.7661 4.1594c0.34858 0.041619 0.55115 0.50856 0.52808 0.82228-0.023069 0.31372-0.16832 0.92358-1.1464 0.9282-0.97806 0.004615-1.2556-0.40571-1.2765-0.93478-0.01638-0.41405 0.16483-0.7573 0.53595-0.77497 0.44242-0.021055 0.29546 0.15718 0.6882 0.14809 0.32799-0.007586 0.33385-0.18421 0.67063-0.18882z"/></g><g stroke-linecap="round" stroke-width=".31287"><path d="m4.5955 4.7519a0.16148 0.15822 0 0 0-0.10265 0.036331c-0.30224 0.14613-0.50921 0.64646-0.50921 0.64646 0.28329-0.2424 0.57495-0.36908 0.57495-0.36908v-0.00115a0.16148 0.15822 0 0 0 0.036908 0.00403 0.16148 0.15822 0 0 0 0.16147-0.158 0.16148 0.15822 0 0 0-0.16147-0.15859z"/><path d="m5.6721 4.7519a0.16148 0.15822 0 0 0-0.16147 0.15859 0.16148 0.15822 0 0 0 0.16147 0.15801 0.16148 0.15822 0 0 0 0.030565-0.00288s0.23515 0.011342 0.51844 0.25374c0 0-0.10086-0.2414-0.41925-0.50287a0.16148 0.15822 0 0 0-0.12975-0.064592z"/><path d="m4.9005 5.1745c-0.00326-0.12396 0.49912-0.1207 0.49259-0.00326-0.00652 0.11744-0.24793 0.18595-0.24793 0.18595s-0.24467-0.042408-0.24467-0.18268z"/></g><g stroke-linecap="round" stroke-width=".31287"><path d="m4.7032 5.5102s0.44364 0.21635 0.44281-0.10695c8.215e-4 0.31936 0.42652 0.10079 0.42652 0.10079" fill="none"/><circle cx="4.5496" cy="4.8483" r=".061982" fill="#fff"/><circle cx="5.71" cy="4.8483" r=".061982" fill="#fff"/></g></g></g></g><path d="m9.9333 2.5232-0.56165 2.4707h-0.068078l-0.45669-2.0139q-0.019856-0.10035-0.036876-0.16264-0.01702-0.065746-0.034039-0.15917-0.011346 0.086507-0.022693 0.13841-0.0085108 0.048445-0.022693 0.10727l-0.46237 2.09h-0.068079l-0.55314-2.4707h0.076588l0.41982 1.8824q0.028366 0.12803 0.048223 0.218 0.022693 0.089968 0.042549 0.19032 0.019856-0.10035 0.039713-0.19032 0.019856-0.093428 0.048223-0.22146l0.42265-1.879h0.070916l0.434 1.8893q0.0312 0.13495 0.048222 0.22492 0.019856 0.086507 0.039711 0.19032 0.017022-0.10381 0.034043-0.19032 0.017022-0.089968 0.048222-0.22492l0.43684-1.8893zm1.8412 2.4707h-0.073752v-1.2561h-1.2708v1.2561h-0.07375v-2.4707h0.07375v1.1281h1.2708v-1.1281h0.07375zm1.3788-1.2111h0.77156v1.0865q-0.13616 0.079588-0.30068 0.12111-0.16169 0.038064-0.32905 0.038064-0.49073 0-0.74886-0.32873-0.2553-0.32873-0.2553-0.93429 0-0.36679 0.12197-0.654 0.12481-0.29067 0.35458-0.46022 0.22976-0.16956 0.54746-0.16956 0.16169 0 0.30635 0.038064 0.1475 0.034603 0.28082 0.11419l-0.03404 0.086508q-0.14467-0.086508-0.28366-0.11765-0.13616-0.034603-0.27231-0.034603-0.29217 0-0.50492 0.15571-0.21274 0.15571-0.32621 0.42562-0.11346 0.2699-0.11346 0.61248 0 0.4187 0.11346 0.67822 0.1163 0.25952 0.32621 0.38063t0.49357 0.12111q0.16452 0 0.30068-0.031143 0.13899-0.034603 0.24962-0.089968v-0.95159h-0.69781zm3.8219 1.2111-0.29501-0.93775h-0.87935l-0.30352 0.93775h-0.07942l0.79992-2.4776h0.07091l0.76588 2.4776zm-0.6354-2.0554q-0.01702-0.058826-0.03971-0.13149-0.02269-0.076127-0.05106-0.17302-0.01986 0.076127-0.04539 0.15917-0.02553 0.079588-0.04822 0.14879l-0.32905 1.0277h0.82545zm1.5944-0.41524q0.3716 0 0.53328 0.14879 0.16169 0.14879 0.16169 0.44638 0 0.21108-0.10212 0.37025-0.10212 0.15917-0.29784 0.2007v0.00693q0.25246 0.044984 0.35174 0.20416 0.09928 0.15571 0.09928 0.39102 0 0.2526-0.09361 0.40832t-0.25813 0.22492q-0.16169 0.069207-0.36876 0.069207h-0.56732v-2.4707zm0.02553 1.1281q0.59285 0 0.59285-0.52943 0-0.27336-0.15034-0.39102-0.14751-0.12111-0.47655-0.12111h-0.45953v1.0416zm-0.49357 0.086507v1.1696h0.51626q0.28933 0 0.45386-0.14533 0.16736-0.14879 0.16736-0.46714 0-0.21454-0.07942-0.33565-0.07659-0.12111-0.22409-0.16956-0.14467-0.051905-0.3489-0.051905zm2.0511 1.2561h-0.45953v-0.069207l0.19289-0.010382v-2.308l-0.19289-0.013841v-0.069207h0.45953v0.069207l-0.19289 0.013841v2.308l0.19289 0.010382zm2.8263 0h-1.2254v-0.079587l0.6354-0.8201q0.13899-0.17648 0.22976-0.32181 0.09361-0.14879 0.14183-0.30105 0.04822-0.15225 0.04822-0.34257 0-0.25952-0.12197-0.40486-0.12197-0.14879-0.34039-0.14879-0.12197 0-0.24962 0.055365-0.12765 0.055365-0.24111 0.1661l-0.04255-0.069207q0.13048-0.13149 0.26948-0.1834 0.14183-0.055365 0.2638-0.055365 0.16169 0 0.28366 0.083048 0.12197 0.079588 0.18722 0.22492 0.06808 0.14187 0.06808 0.33219 0 0.20762-0.0539 0.37025-0.05106 0.16263-0.15034 0.31489-0.09644 0.15225-0.23544 0.32873l-0.59001 0.76127v0.00346h1.1233zm1.0724-2.5053q0.25529 0 0.40563 0.14879 0.15034 0.14879 0.15034 0.41524 0 0.22838-0.12765 0.37371-0.12481 0.14187-0.34039 0.24568 0.25246 0.10381 0.39429 0.26644 0.14183 0.16263 0.14183 0.42908 0 0.21108-0.0851 0.35987-0.0851 0.14533-0.22976 0.22492-0.14183 0.076128-0.32054 0.076128t-0.3177-0.079587q-0.13616-0.083048-0.21558-0.22492-0.07659-0.14533-0.07659-0.33565 0-0.28375 0.14467-0.44984 0.14467-0.1661 0.38578-0.26298-0.12765-0.058826-0.2326-0.13495-0.10495-0.079588-0.1702-0.19378-0.06241-0.11765-0.06241-0.28721 0-0.17302 0.07091-0.30105 0.07091-0.12803 0.19572-0.19724 0.12765-0.072667 0.28933-0.072667zm0 0.086507q-0.20707 0-0.34323 0.12457t-0.13616 0.35987q0 0.22146 0.13332 0.34949 0.13332 0.12803 0.35458 0.22146 0.23544-0.11765 0.35174-0.24568 0.11914-0.12803 0.11914-0.33219 0-0.23876-0.12765-0.35641-0.12481-0.12111-0.35174-0.12111zm-0.54463 1.8132q0 0.25606 0.1475 0.40486 0.1475 0.14879 0.38578 0.14879 0.24395 0 0.39996-0.14533 0.15885-0.14533 0.15885-0.42908 0-0.22492-0.12197-0.36679-0.11914-0.14533-0.35174-0.24568l-0.07942-0.034603q-0.15034 0.058826-0.27231 0.14533-0.12197 0.083047-0.19573 0.21108-0.07091 0.12457-0.07091 0.31143z" stroke="#000" stroke-linecap="round" stroke-width=".14111" aria-label="WHG ABI 28"/></svg>
