<svg xmlns="http://www.w3.org/2000/svg" version="1.1" width="48" height="48" viewBox="0 0 12.7 12.7" xml:space="preserve"><metadata><rdf:RDF xmlns:rdf="http://www.w3.org/1999/02/22-rdf-syntax-ns#" xmlns:dc="http://purl.org/dc/elements/1.1/"><rdf:Description><dc:creator>RealFaviconGenerator</dc:creator><dc:source>https://realfavicongenerator.net</dc:source></rdf:Description></rdf:RDF></metadata><defs><clipPath id="clipPath121"><rect y="-1.4488e-7" width="12.7" height="12.7" fill="none"></rect></clipPath></defs><g display="none" opacity=".222"><g clip-path="url(#clipPath121)" stroke="#000" stroke-linecap="round" stroke-width="1.3632"><path d="m9.6183 1.1523c1.5785 0.20369 2.4958 2.489 2.3914 4.0244-0.10447 1.5354-0.76224 4.5203-5.1913 4.5428-4.429 0.022588-5.6857-1.9857-5.7804-4.575-0.074175-2.0265 0.74642-3.7064 2.427-3.7929 2.0034-0.10305 1.338 0.76927 3.1164 0.72481 1.4853-0.037128 1.5118-0.90158 3.0369-0.92416z" fill="none"></path><path d="m5.0484 4.8271a0.73125 0.77436 0 0 1-0.73125 0.77436 0.73125 0.77436 0 0 1-0.73125-0.77436 0.73125 0.77436 0 0 1 0.73125-0.77436 0.73125 0.77436 0 0 1 0.73125 0.77436z" display="inline"></path><path d="m9.9229 4.8271a0.73125 0.77436 0 0 1-0.73125 0.77436 0.73125 0.77436 0 0 1-0.73125-0.77436 0.73125 0.77436 0 0 1 0.73125-0.77436 0.73125 0.77436 0 0 1 0.73125 0.77436z" display="inline"></path><g><path d="m5.6984 6.1203c-0.014766-0.60671 2.2602-0.59075 2.2307-0.015959-0.029548 0.57478-1.1227 0.91007-1.1227 0.91007s-1.108-0.20756-1.108-0.8941z"></path><path d="m4.8049 7.763s2.009 1.0589 2.0052-0.52344c0.0037305 1.563 1.9315 0.49331 1.9315 0.49331" fill="none"></path><path d="m9.9229 4.8271c1.4418 1.2797 1.7566 2.0034 1.7566 2.0034-1.2829-1.1864-2.0978-1.2591-2.0978-1.2591z"></path><path d="m3.7336 4.4054c-1.3687 0.71519-2.1879 2.987-2.1879 2.987 1.2829-1.1864 2.6056-1.805 2.6056-1.805z"></path></g><path d="m4.3904 4.5237a0.28068 0.30336 0 0 1-0.28068 0.30336 0.28068 0.30336 0 0 1-0.28068-0.30336 0.28068 0.30336 0 0 1 0.28068-0.30336 0.28068 0.30336 0 0 1 0.28068 0.30336z" fill="#fff"></path><path d="m9.5314 4.388a0.28068 0.30336 0 0 1-0.28068 0.30336 0.28068 0.30336 0 0 1-0.28068-0.30336 0.28068 0.30336 0 0 1 0.28068-0.30336 0.28068 0.30336 0 0 1 0.28068 0.30336z" fill="#fff"></path></g></g><g display="none"><rect width="12.7" height="12.7" display="inline" fill="#fff"></rect></g><path d="m3.1992 2.4082c-0.091864 0.0030269-0.18829 0.012268-0.28906 0.027344-1.2963 0.19392-1.7227 1.9545-1.7227 3.3574 0 2.8059 2.311 5.082 5.1621 5.082 2.8511 0 5.1621-2.2761 5.1621-5.082 0-1.403-0.42634-3.1635-1.7227-3.3574-1.6124-0.24121-2.0139 1.1543-3.4395 1.1543-1.3365-1e-7 -1.7724-1.227-3.1504-1.1816z" fill="none" stroke="#000" stroke-linecap="round" stroke-width="1.0583"></path><g transform="translate(-.14883 -.46302)"><g transform="translate(-.095146)"><g transform="translate(.30373)"><g transform="translate(0 .072736)"><circle cx="4.053" cy="5.9219" r="1.2981"></circle><path d="m1.572 7.7782s0.72804-2.1674 1.5326-2.7427c0.74104-0.52985 1.7488 2.0779 0.94845 2.1845-1.12 0.14922-2.2003 1.2539-2.2003 1.2539z"></path></g><g transform="matrix(-1 0 0 1 12.58 .11254)"><circle cx="4.053" cy="5.9219" r="1.2981"></circle><path d="m1.572 7.7782s0.72804-2.1674 1.5326-2.7427c0.74104-0.52985 1.7488 2.0779 0.94845 2.1845-1.12 0.14922-2.2003 1.2539-2.2003 1.2539z"></path></g></g><g stroke-linecap="round" stroke-width=".81139"><path d="m7.5903 7.4207c0 0.55025-0.44607 0.99632-0.99632 0.99632s-0.99632-0.44607-0.99632-0.99632c0-0.55025 0.44607-0.60771 0.99632-0.60771 0.55025-1e-7 0.99632 0.057461 0.99632 0.60771z"></path><path d="m6.594 8.4171s1e-7 1.1245-1.9844 0.46302" fill="none" stroke="#000"></path><path d="m6.594 8.4171s-1e-7 1.1245 1.9844 0.46302" fill="none" stroke="#000"></path></g></g></g><style>@media (prefers-color-scheme: light) { :root { filter: none; } }
@media (prefers-color-scheme: dark) { :root { filter: invert(100%); } }
</style></svg>